PathFileType	4	(X/Y/Z)	C:\Users\Basilio\Documents\Thesis Gigler\squatting_fais\c3dfiles\040\SJ_pre3\markers_experimental.trc
DataRate	CameraRate	NumFrames	NumMarkers	Units	OrigDataRate	OrigDataStartFrame	OrigNumFrames
200.000000	200.000000	4	63	mm	200.000000	781	1251
Frame#	Time	FHD			LBHD			RBHD			C7			T10			CLAV			LSHO			LUUPA			LMUPA			LDUPA			LLEP			LMEP			LRAD			LUL			LRFIN			RSHO			RUPA1			RMUPA			RDUPA			RLEP			RMEP			RRAD			RUL			RUFIN			LASI			RASI			USACR			LSACR			RSACR			LTHI1			LTHI2			LTHI3			LTHI4			LLFC			LMFC			LTIB1			LTIB2			LTIB3			LTIB4			LLMAL			LMMAL			LHEE			LMT1			LMT2			LMT5			RTHI			RTHI2			RTHI3			RTHI4			RLFC			RMFC			RTIB1			RTIB2			RTIB3			RTIB4			RLMAL			RMMAL			RHEE			RMT1			RMT2			RMT5			*61			*62			
		X1	Y1	Z1	X2	Y2	Z2	X3	Y3	Z3	X4	Y4	Z4	X5	Y5	Z5	X6	Y6	Z6	X7	Y7	Z7	X8	Y8	Z8	X9	Y9	Z9	X10	Y10	Z10	X11	Y11	Z11	X12	Y12	Z12	X13	Y13	Z13	X14	Y14	Z14	X15	Y15	Z15	X16	Y16	Z16	X17	Y17	Z17	X18	Y18	Z18	X19	Y19	Z19	X20	Y20	Z20	X21	Y21	Z21	X22	Y22	Z22	X23	Y23	Z23	X24	Y24	Z24	X25	Y25	Z25	X26	Y26	Z26	X27	Y27	Z27	X28	Y28	Z28	X29	Y29	Z29	X30	Y30	Z30	X31	Y31	Z31	X32	Y32	Z32	X33	Y33	Z33	X34	Y34	Z34	X35	Y35	Z35	X36	Y36	Z36	X37	Y37	Z37	X38	Y38	Z38	X39	Y39	Z39	X40	Y40	Z40	X41	Y41	Z41	X42	Y42	Z42	X43	Y43	Z43	X44	Y44	Z44	X45	Y45	Z45	X46	Y46	Z46	X47	Y47	Z47	X48	Y48	Z48	X49	Y49	Z49	X50	Y50	Z50	X51	Y51	Z51	X52	Y52	Z52	X53	Y53	Z53	X54	Y54	Z54	X55	Y55	Z55	X56	Y56	Z56	X57	Y57	Z57	X58	Y58	Z58	X59	Y59	Z59	X60	Y60	Z60	X61	Y61	Z61	X62	Y62	Z62	X63	Y63	Z63	

782	3.905	-142.7308349609375	2220.771484375	-895.4194335937502	-276.6144714355469	2192.30029296875	-933.8120117187502	-334.2878723144532	2174.31396484375	-800.5859985351565	-369.1054992675782	2055.60546875	-876.2866821289065	-375.7925415039063	1727.009155273438	-883.2979736328127	-246.4232330322266	1987.376708984375	-835.3554687500002	-238.6322021484376	2044.125244140625	-1009.623229980469	-211.0223083496094	1925.831787109375	-1180.295654296875	-198.0724792480469	1878.886962890625	-1169.690063476563	-209.582015991211	1875.272338867188	-1228.6826171875	-216.1854858398438	1827.012451171875	-1278.754760742188	-294.0868835449219	1828.430908203125	-1276.461181640625	-306.7700500488282	1613.886352539063	-1091.706420898438	-256.0778198242188	1573.521728515625	-1130.35888671875	-264.2193298339844	1609.271118164063	-1033.946166992188	-339.0037536621094	2028.030395507813	-685.3943481445314	-475.4729309082032	1937.347900390625	-561.9730834960939	-455.6864013671876	1895.911254882813	-542.4948120117189	-511.6277770996095	1893.030883789063	-520.6533813476564	-536.2098999023439	1833.00390625	-484.2074584960939	-584.8453369140626	1811.656860351563	-553.2220458984376	-369.3198547363282	1669.453979492188	-656.6342163085939	-370.6310119628907	1624.025146484375	-596.0274658203126	-294.8454895019532	1637.349609375	-681.4211425781251	-183.9754791259766	1550.84619140625	-937.7631835937502	-228.4041442871094	1552.0166015625	-716.2528686523439	-377.4085693359376	1603.2373046875	-871.4855957031252	-378.6665344238282	1573.324462890625	-899.0916748046877	-391.6045837402345	1573.737060546875	-845.065612792969	-339.5148010253907	1315.189453125	-1048.876342773438	-314.5405273437501	1237.231567382813	-1069.729248046875	-267.9367980957032	1233.136962890625	-1070.85009765625	-345.9162597656251	1186.464599609375	-1064.276123046875	-346.9521789550782	1054.047119140625	-1079.235107421875	-351.7599182128907	1009.82861328125	-953.8035278320315	-342.9151000976563	824.028259277344	-1084.401000976563	-417.7050170898439	803.995788574219	-1126.666748046875	-375.9777526855469	788.153503417969	-1118.326293945313	-377.7778015136719	702.1409912109376	-1098.680908203125	-458.5382385253907	626.6287231445314	-1123.511840820313	-418.2598876953126	615.0218505859376	-1046.32177734375	-524.3676757812501	617.4365234375001	-1075.343139648438	-360.1392517089844	469.3580322265626	-1078.396362304688	-358.8517150878907	472.5576477050782	-1124.033447265625	-416.0446777343751	488.9628906250001	-1164.851806640625	-350.5956726074219	1291.736694335938	-662.1129760742189	-326.4674987792969	1229.23779296875	-653.4520263671876	-294.5608520507813	1225.530395507813	-649.8617553710939	-364.0299072265626	1157.739013671875	-673.1489868164064	-375.6425476074219	1022.372619628906	-676.0337524414064	-334.9720153808594	1006.894165039063	-802.5203857421877	-351.9601135253907	827.3255615234377	-680.1846923828126	-437.8969116210939	766.1870727539064	-676.1300048828126	-393.617645263672	752.7149047851564	-670.9331665039064	-376.8511657714844	702.5621948242189	-697.2008666992189	-453.6755371093751	601.3967285156251	-694.2495117187501	-409.8739318847657	608.8876342773439	-768.9320068359377	-505.0844726562501	606.0048217773439	-767.0313720703126	-342.0527343750001	453.6902465820314	-750.1102294921876	-354.9727172851563	451.0221557617189	-712.9625854492189	-415.0989379882814	447.569549560547	-679.1518554687501	nan	nan	nan	nan	nan	nan	
783	3.91	-142.574203491211	2221.720703125	-895.146667480469	-276.7167358398438	2193.671142578125	-933.2930297851565	-333.7874450683594	2175.452392578125	-800.039001464844	-369.0046386718751	2056.797119140625	-876.434997558594	-375.9192199707032	1728.082885742188	-884.0769653320315	-246.4729919433594	1988.518676757813	-835.0463867187502	-237.9704742431641	2045.1572265625	-1009.171997070313	-209.1258087158204	1927.030883789063	-1179.841064453125	-197.062484741211	1879.721923828125	-1169.082641601563	-208.0625457763672	1876.115600585938	-1228.142822265625	-214.9334716796876	1828.199462890625	-1278.579956054688	-292.3954772949219	1830.084594726563	-1276.47998046875	-306.8952026367188	1615.346557617188	-1091.902709960938	-255.9690399169922	1574.71875	-1130.435913085938	-264.2554626464844	1610.4638671875	-1034.01025390625	-339.4635925292969	2029.030517578125	-685.6376953125001	-477.4161071777345	1938.855590820313	-562.7381591796876	-457.3294982910157	1897.231811523438	-543.3945312500001	-513.5613403320314	1894.59130859375	-521.8169555664064	-538.6566772460939	1834.000366210938	-484.793914794922	-586.6558227539064	1813.406982421875	-554.8233032226564	-370.7497558593751	1671.05078125	-657.1266479492189	-372.8885498046876	1625.49462890625	-596.9122314453126	-296.5674133300782	1638.49462890625	-681.3470458984376	-184.4357452392578	1551.85986328125	-937.741149902344	-229.0723114013672	1553.841186523438	-716.1304321289064	-377.4853210449219	1604.8740234375	-871.8961181640627	-378.7125244140626	1574.680541992188	-899.2933349609377	-391.7807617187501	1575.6650390625	-845.4091796875002	-339.2403259277344	1316.394165039063	-1049.53076171875	-314.1990356445313	1238.139526367188	-1070.628295898438	-267.5464172363282	1234.128051757813	-1070.98046875	-345.6378479003907	1187.411376953125	-1064.938598632813	-347.1224365234376	1055.203735351563	-1079.753540039063	-352.0460815429688	1011.322998046875	-954.2346801757815	-343.3704223632813	825.493103027344	-1085.493896484375	-418.1774291992189	805.3196411132815	-1127.582763671875	-376.4589538574219	789.581970214844	-1119.556274414063	-378.5931701660157	703.4055786132814	-1099.982666015625	-459.4804077148439	627.9272460937501	-1124.812866210938	-418.4879760742189	616.1951904296876	-1047.62451171875	-525.0218505859376	618.2437133789064	-1076.443115234375	-360.8778686523438	471.0733642578126	-1079.883544921875	-358.9507141113282	474.6686096191407	-1126.417846679688	-416.4815368652345	490.3865356445314	-1166.472900390625	-350.1686401367188	1292.826904296875	-661.8707275390626	-325.7952270507813	1230.552856445313	-653.3389892578126	-293.7280578613282	1226.515380859375	-650.3075561523439	-363.3738403320313	1158.62890625	-672.9659423828126	-375.4146728515626	1023.580871582031	-675.9346923828126	-336.5853881835938	1008.242065429688	-803.330261230469	-351.0334472656251	829.2896118164065	-679.9771728515626	-437.5316467285157	767.1038818359376	-675.5797729492189	-392.8680419921876	754.1159667968751	-670.9044799804689	-376.5051879882813	703.8436279296876	-696.9328613281251	-452.8492736816407	602.4662475585939	-693.7931518554689	-409.987518310547	610.1936645507814	-769.0087890625002	-504.8372802734376	606.6134643554689	-766.3641357421876	-341.0172729492188	455.508026123047	-749.9239501953126	-352.8877868652344	452.7574462890626	-711.9037475585939	-413.8542480468751	449.0079956054689	-678.7079467773439	nan	nan	nan	nan	nan	nan	
784	3.915	-142.7195739746094	2222.845458984375	-894.9735107421877	-276.6887817382813	2194.6669921875	-932.8897705078127	-333.7729797363282	2176.387451171875	-799.5421142578127	-368.9060974121094	2057.69921875	-876.613708496094	-375.4874877929688	1728.93359375	-884.7022094726565	-246.3124084472657	1989.275756835938	-834.920104980469	-237.0378417968751	2046.256713867188	-1008.815795898438	-207.5851593017579	1927.605102539063	-1179.493896484375	-195.8170013427735	1880.380126953125	-1168.471313476563	-206.7891845703126	1876.859252929688	-1227.701293945313	-213.8245239257813	1829.224487304688	-1278.089111328125	-291.0836486816407	1831.4443359375	-1276.567260742188	-307.0635375976563	1616.5283203125	-1092.060424804688	-255.9103240966797	1575.809204101563	-1130.644409179688	-264.3845214843751	1611.18701171875	-1034.18798828125	-340.1246643066407	2030.1142578125	-685.5055541992189	-479.1690063476564	1940.255859375	-563.5996704101564	-459.3905334472657	1898.511108398438	-543.9905395507814	-515.9473876953126	1895.893432617188	-522.8363037109376	-540.6295166015626	1835.724853515625	-486.3130798339845	-588.4275512695314	1814.975830078125	-556.4411010742189	-372.3833618164063	1672.3046875	-657.8193969726564	-374.9014282226563	1626.50244140625	-597.5895385742189	-297.7256774902344	1640.260498046875	-681.5159912109376	-184.820068359375	1552.682250976563	-937.8804931640627	-229.8634490966797	1554.94140625	-716.4432373046876	-377.8689270019532	1606.375610351563	-872.3686523437502	-379.1827697753907	1576.262329101563	-899.6708984375002	-392.0748596191407	1577.209228515625	-845.8594970703127	-339.0758056640626	1317.163452148438	-1050.394165039063	-313.7402648925782	1238.82177734375	-1070.973876953125	-267.1175537109376	1234.73046875	-1071.126831054688	-345.2912292480469	1188.030883789063	-1065.6025390625	-347.1699218750001	1055.96728515625	-1080.401733398438	-353.2171020507813	1011.613891601563	-954.990905761719	-343.6997680664063	826.7969970703127	-1086.397216796875	-418.4715881347657	806.3754882812502	-1128.603515625	-376.9383239746094	790.336120605469	-1120.375122070313	-379.0918579101563	704.2253417968751	-1101.296264648438	-460.0110778808595	629.1269531250001	-1125.953491210938	-419.1317138671876	616.7832031250001	-1048.821044921875	-525.6031494140626	619.1477661132814	-1077.683959960938	-360.7155151367188	472.1065673828126	-1081.812744140625	-359.5264892578126	475.7731018066407	-1128.103759765625	-416.9124755859376	491.7369995117189	-1168.237426757813	-349.5812683105469	1293.64599609375	-661.5134277343751	-324.9182128906251	1231.10595703125	-653.5729980468751	-292.8742370605469	1227.376342773438	-650.9384155273439	-362.9658813476563	1159.593017578125	-672.6577758789064	-374.8278808593751	1024.38623046875	-675.9071655273439	-337.5795898437501	1009.237487792969	-803.7902832031252	-351.0904541015626	829.7828369140627	-680.3346557617189	-436.8933410644532	768.2785644531252	-674.9672241210939	-392.3259582519532	755.2445068359376	-670.4216308593751	-375.6198120117188	704.9191894531251	-697.0623168945314	-452.2179260253907	603.2934570312501	-693.2604980468751	-409.8243713378907	611.2761230468751	-768.8688964843752	-504.8627319335939	607.1753540039064	-765.6777343750001	-339.9833679199219	456.7021789550782	-749.8692016601564	-352.5273742675782	453.6162414550782	-712.2456054687501	-412.5356445312501	450.1472167968751	-678.0988769531251	nan	nan	nan	nan	nan	nan	
785	3.92	-142.7090606689453	2223.75439453125	-894.8110961914065	-276.6999816894532	2195.6416015625	-932.5059204101565	-333.6324462890626	2177.073486328125	-799.0908203125002	-367.5856323242188	2058.335693359375	-876.7082519531252	-376.3824462890626	1729.453125	-885.6914672851565	-246.4055175781251	1989.947387695313	-834.4266357421877	-235.6618804931641	2046.821411132813	-1008.199584960938	-205.9462432861329	1928.153076171875	-1179.096557617188	-194.9746246337891	1880.912963867188	-1167.935546875	-205.3691864013672	1877.471313476563	-1227.252685546875	-212.5504150390626	1829.803588867188	-1277.585693359375	-290.2579040527344	1832.830932617188	-1276.431640625	-307.3008422851563	1617.461791992188	-1092.381469726563	-256.0988159179688	1576.549194335938	-1130.626708984375	-264.4692077636719	1611.8408203125	-1034.177734375	-340.5787963867188	2030.835571289063	-685.6660156250001	-480.5362243652345	1941.083251953125	-564.4978637695314	-461.295135498047	1899.62353515625	-544.8579101562501	-517.5061645507814	1896.97705078125	-524.1402587890626	-542.8068847656251	1836.551635742188	-487.5607910156251	-590.3814086914064	1816.015014648438	-558.1628417968751	-373.6851196289063	1673.214233398438	-658.4892578125001	-376.8631286621094	1627.4990234375	-598.4420166015626	-298.9172973632813	1641.0576171875	-681.6446533203126	-185.2098541259766	1553.080444335938	-937.9421386718752	-230.8775482177735	1556.268798828125	-716.4305419921876	-378.2076110839844	1607.70361328125	-872.893249511719	-379.4477539062501	1577.574829101563	-900.0037841796877	-392.4082641601564	1578.574096679688	-846.079528808594	-338.7923278808594	1317.768920898438	-1051.1259765625	-313.3258666992188	1239.267822265625	-1071.441650390625	-266.7784423828126	1235.147094726563	-1071.285400390625	-344.9635925292969	1188.65087890625	-1066.272216796875	-347.0757141113282	1056.476196289063	-1081.037231445313	-353.5068054199219	1012.078674316406	-955.4418945312502	-344.1251525878907	826.8748779296877	-1087.30908203125	-418.9861145019532	807.2283325195315	-1129.686279296875	-377.6456909179688	791.1341552734377	-1121.27099609375	-379.6769409179688	704.9520874023439	-1102.4130859375	-460.7567138671876	629.9354858398439	-1127.247802734375	-419.6708068847657	618.0073242187501	-1049.945190429688	-526.1771850585939	619.6657714843751	-1078.871826171875	-361.1975097656251	473.2756652832032	-1083.724609375	-359.6394958496094	477.1329956054689	-1130.109619140625	-417.9988098144532	492.814910888672	-1169.739868164063	-348.7171630859376	1294.22119140625	-661.2904663085939	-324.3312988281251	1231.735595703125	-653.6589965820314	-292.1839904785157	1228.115478515625	-651.3759765625001	-362.6374206542969	1160.450439453125	-672.2075805664064	-373.8613281250001	1025.087890625	-675.7780761718751	-338.6733703613282	1010.101989746094	-804.300231933594	-350.2213745117188	830.4594726562502	-680.7490234375001	-435.8805541992189	768.7810668945315	-674.6948852539064	-391.7078552246095	755.8114624023439	-670.4701538085939	-375.2979736328126	705.5480346679689	-697.1661376953126	-451.7409667968751	604.0376586914064	-692.7017211914064	-409.2461242675782	610.9436035156251	-768.6187133789065	-504.6103820800782	607.3015136718751	-764.8779907226564	-339.2610168457032	457.744842529297	-750.0505371093751	-350.7084655761719	454.9354553222657	-711.7669677734376	-411.1286926269532	450.7586364746095	-677.5481567382814	nan	nan	nan	nan	nan	nan	
